<svg id="Layer_1" data-name="Layer 1" xmlns="http://www.w3.org/2000/svg" xmlns:xlink="http://www.w3.org/1999/xlink" viewBox="0 0 128 128"><defs><style>.cls-1{fill:#9b3066}.cls-12,.cls-2{fill:#fff}.cls-3{fill:url(#linear-gradient)}.cls-4{fill:url(#linear-gradient-2)}.cls-5{fill:url(#linear-gradient-3)}.cls-6{fill:url(#linear-gradient-4)}.cls-7{fill:url(#linear-gradient-5)}.cls-8{fill:url(#linear-gradient-6)}.cls-9{fill:url(#linear-gradient-7)}.cls-10{fill:url(#linear-gradient-8)}.cls-11{fill:url(#linear-gradient-9)}.cls-12{font-size:17.67px;font-family:Gotham-Light,Gotham}.cls-13{letter-spacing:-.02em}</style><linearGradient id="linear-gradient" x1="13.77" y1="100.44" x2="62.59" y2="72.25" gradientUnits="userSpaceOnUse"><stop offset=".73" stop-color="#fff"/><stop offset="1"/></linearGradient><linearGradient id="linear-gradient-2" x1="16.17" y1="105.1" x2="64.53" y2="77.17" xlink:href="#linear-gradient"/><linearGradient id="linear-gradient-3" x1="17.79" y1="108.72" x2="66.34" y2="80.68" xlink:href="#linear-gradient"/><linearGradient id="linear-gradient-4" x1="18.86" y1="111.27" x2="67.41" y2="83.24" xlink:href="#linear-gradient"/><linearGradient id="linear-gradient-5" x1="20.99" y1="115.22" x2="69.29" y2="87.34" xlink:href="#linear-gradient"/><linearGradient id="linear-gradient-6" x1="24.76" y1="121.57" x2="72.73" y2="93.88" xlink:href="#linear-gradient"/><linearGradient id="linear-gradient-7" x1="26.66" y1="126.43" x2="75.02" y2="98.51" xlink:href="#linear-gradient"/><linearGradient id="linear-gradient-8" x1="26.63" y1="129.78" x2="75.91" y2="101.33" xlink:href="#linear-gradient"/><linearGradient id="linear-gradient-9" x1="29.37" y1="133.6" x2="78.19" y2="105.41" xlink:href="#linear-gradient"/></defs><title>Artboard 1</title><circle class="cls-1" cx="64" cy="64" r="64"/><path class="cls-2" d="M20.75 54.37v-.12c0-11.58 9.34-21 21.78-21S64.2 42.56 64.2 54.14v.12c0 11.58-9.34 21-21.78 21S20.75 66 20.75 54.37zm32 0v-.12c0-5.88-4.15-10.89-10.32-10.89s-10.26 5-10.26 10.78v.12c0 5.82 4.21 10.89 10.37 10.89s10.19-4.96 10.19-10.78zM68.64 54.37v-.12c0-11.76 9-21 21.21-21 8.24 0 13.54 3.46 17.12 8.36l-8.42 6.51c-2.3-2.82-5-4.73-8.82-4.73-5.65 0-9.63 4.84-9.63 10.72v.12c0 6.05 4 10.78 9.63 10.78 4.21 0 6.68-2 9.1-4.9l8.41 6c-3.8 5.24-8.93 9.11-17.81 9.11a20.48 20.48 0 0 1-20.79-20.85z"/><path class="cls-3" d="M23.19 92.55c0-2.93 2-4.72 3.94-4.72A3.86 3.86 0 0 1 30.47 90v-5.87h.78V97h-.78v-2a3.88 3.88 0 0 1-3.34 2.23c-1.95 0-3.94-1.74-3.94-4.68zm7.33 0a3.6 3.6 0 0 0-3.31-3.87c-1.76 0-3.18 1.43-3.18 3.85 0 2.37 1.48 3.89 3.18 3.89a3.61 3.61 0 0 0 3.31-3.88z"/><path class="cls-4" d="M33.54 94.41c0-1.87 1.45-2.93 3.54-2.93a8.86 8.86 0 0 1 2.69.39v-.39a2.45 2.45 0 0 0-2.67-2.76 5 5 0 0 0-2.54.72l-.29-.76a6 6 0 0 1 2.88-.78 3.3 3.3 0 0 1 2.56 1 3.65 3.65 0 0 1 .83 2.54V97h-.76v-1.5a3.59 3.59 0 0 1-3.1 1.71 2.92 2.92 0 0 1-3.14-2.8zm6.24-.76v-1a9.74 9.74 0 0 0-2.78-.43c-1.72 0-2.67.85-2.67 2.1a2.15 2.15 0 0 0 2.35 2.07 2.88 2.88 0 0 0 3.11-2.74z"/><path class="cls-5" d="M42.64 95.89l.46-.69a4.47 4.47 0 0 0 2.9 1.19 1.78 1.78 0 0 0 2-1.71c0-1.06-1-1.45-2.15-1.8C44.5 92.41 43 92 43 90.36a2.48 2.48 0 0 1 2.67-2.49 5.1 5.1 0 0 1 2.88 1l-.41.72a4.34 4.34 0 0 0-2.49-.9 1.65 1.65 0 0 0-1.84 1.57c0 1 1.1 1.38 2.26 1.75s2.67.94 2.67 2.53A2.62 2.62 0 0 1 46 97.2a5.22 5.22 0 0 1-3.36-1.31z"/><path class="cls-6" d="M51.24 84.13H52v5.56a3.15 3.15 0 0 1 2.92-1.89c2.05 0 3.24 1.55 3.24 3.71V97h-.78v-5.33c0-1.86-.94-3.07-2.57-3.07A3 3 0 0 0 52 91.81V97h-.78z"/><path class="cls-7" d="M61.76 95.08V97H61V84.13h.78V90a3.88 3.88 0 0 1 3.32-2.2c2 0 3.94 1.75 3.94 4.68 0 2.93-2 4.72-3.94 4.72a3.86 3.86 0 0 1-3.34-2.12zm6.44-2.53c0-2.37-1.48-3.88-3.18-3.88a3.61 3.61 0 0 0-3.31 3.87A3.6 3.6 0 0 0 65 96.4c1.79 0 3.2-1.4 3.2-3.85z"/><path class="cls-8" d="M70.92 92.55a4.45 4.45 0 0 1 4.18-4.75 4.4 4.4 0 0 1 4.15 4.68 4.45 4.45 0 0 1-4.18 4.72 4.4 4.4 0 0 1-4.15-4.65zm7.49 0c0-2.17-1.46-3.9-3.34-3.9s-3.31 1.75-3.31 3.87c0 2.17 1.46 3.9 3.34 3.9s3.31-1.75 3.31-3.87z"/><path class="cls-9" d="M81 94.41c0-1.87 1.45-2.93 3.54-2.93a8.87 8.87 0 0 1 2.69.39v-.39a2.45 2.45 0 0 0-2.67-2.76 5 5 0 0 0-2.54.72l-.29-.76a6 6 0 0 1 2.88-.78 3.29 3.29 0 0 1 2.56 1 3.65 3.65 0 0 1 .83 2.5V97h-.76v-1.5a3.59 3.59 0 0 1-3.1 1.71 2.92 2.92 0 0 1-3.14-2.8zm6.25-.76v-1a9.74 9.74 0 0 0-2.75-.41c-1.72 0-2.67.85-2.67 2.1a2.15 2.15 0 0 0 2.35 2.07 2.88 2.88 0 0 0 3.05-2.76z"/><path class="cls-10" d="M90.78 88h.78v2.56a3.85 3.85 0 0 1 3.59-2.7v1h-.08c-1.87 0-3.51 1.57-3.51 4.5V97h-.78z"/><path class="cls-11" d="M96.22 92.55c0-2.93 2-4.72 3.94-4.72A3.86 3.86 0 0 1 103.5 90v-5.87h.78V97h-.78v-2a3.88 3.88 0 0 1-3.34 2.23c-1.95 0-3.94-1.74-3.94-4.68zm7.33 0a3.6 3.6 0 0 0-3.31-3.87c-1.76 0-3.18 1.43-3.18 3.85 0 2.37 1.48 3.89 3.18 3.89a3.61 3.61 0 0 0 3.3-3.88z"/><text class="cls-12" transform="matrix(.9 0 0 1 22.24 97.02)">dashboa<tspan class="cls-13" x="74.55" y="0">r</tspan><tspan x="81.18" y="0">d</tspan></text></svg>